<?xml version="1.0" encoding="UTF-8" standalone="no"?>
<svg
   xmlns:dc="http://purl.org/dc/elements/1.1/"
   xmlns:cc="http://creativecommons.org/ns#"
   xmlns:rdf="http://www.w3.org/1999/02/22-rdf-syntax-ns#"
   xmlns:svg="http://www.w3.org/2000/svg"
   xmlns="http://www.w3.org/2000/svg"
   xmlns:sodipodi="http://sodipodi.sourceforge.net/DTD/sodipodi-0.dtd"
   xmlns:inkscape="http://www.inkscape.org/namespaces/inkscape"
   width="210mm"
   height="297mm"
   viewBox="0 0 210 297"
   version="1.1"
   id="svg8"
   inkscape:version="1.0 (b51213c273, 2020-08-10)"
   sodipodi:docname="logo.svg">
  <defs
     id="defs2" />
  <sodipodi:namedview
     id="base"
     pagecolor="#ffffff"
     bordercolor="#666666"
     borderopacity="1.0"
     inkscape:pageopacity="0.0"
     inkscape:pageshadow="2"
     inkscape:zoom="0.49709596"
     inkscape:cx="396.85039"
     inkscape:cy="561.25984"
     inkscape:document-units="mm"
     inkscape:current-layer="layer1"
     inkscape:document-rotation="0"
     showgrid="false"
     inkscape:window-width="1366"
     inkscape:window-height="741"
     inkscape:window-x="0"
     inkscape:window-y="27"
     inkscape:window-maximized="1" />
  <metadata
     id="metadata5">
    <rdf:RDF>
      <cc:Work
         rdf:about="">
        <dc:format>image/svg+xml</dc:format>
        <dc:type
           rdf:resource="http://purl.org/dc/dcmitype/StillImage" />
        <dc:title></dc:title>
      </cc:Work>
    </rdf:RDF>
  </metadata>
  <g
     inkscape:label="Layer 1"
     inkscape:groupmode="layer"
     id="layer1">
    <path
       style="opacity:1;fill:#000000;stroke-width:2.85714"
       d="m 1408.9029,755 c -0.3797,-13.90961 2.5337,-15.23762 10.6876,-4.87169 l 5.7195,7.27116 1.2026,-7.98545 c 0.8678,-5.76213 1.3218,-4.60462 1.6307,4.15741 0.4843,13.73746 -2.5011,15.54251 -8.1742,4.94227 -4.0495,-7.56654 -7.0651,-6.62745 -9.3603,2.91487 -0.756,3.14286 -1.5237,0.25 -1.7059,-6.42857 z"
       id="path9863"
       transform="scale(0.26458333)" />
    <path
       style="fill:#000000;stroke-width:0.598362"
       d="m 69.548684,197.13837 v -3.59018 h -3.590182 -3.590177 v -3.88935 -3.88936 h -3.88936 -3.889357 v -3.59017 -3.59018 h -3.590177 -3.590177 v -3.88935 -3.88938 h -3.88936 -3.889359 V 125.9332 81.055976 h 3.889359 3.88936 v -3.590177 -3.590177 h 52.356757 52.356739 v 3.590177 3.590177 h 3.59018 3.59018 v 40.959304 40.9593 l 3.73975,0.17821 3.73978,0.17821 0.17821,3.73978 0.17821,3.73975 h 3.56163 3.56162 v 3.56164 3.56164 l 3.73977,0.17821 3.73976,0.1782 0.17821,3.73976 0.17821,3.73978 h 3.56163 3.56162 v 3.88935 3.88936 h -3.59018 -3.59018 v 3.59017 3.59018 H 125.79479 69.548684 Z m 111.893846,-7.77871 v -3.59018 h -7.12011 -7.12009 l -0.43141,-7.47953 -0.43141,-7.47955 h -3.51821 -3.51819 v -3.59016 -3.59017 h -3.59018 -3.59018 v 3.59017 3.59016 h -3.88935 -3.88937 v -3.59016 -3.59017 h -3.59018 -3.59018 v 3.59017 3.59016 h -3.88935 -3.88936 v -3.59016 -3.59017 h -3.59017 -3.59018 v 3.59017 3.59016 h -3.88936 -3.88935 v -3.59016 -3.59017 h -3.59018 -3.59018 v 3.59017 3.59016 h -3.88935 -3.889379 v -3.59016 -3.59017 h -3.59018 -3.59017 v 3.59017 3.59016 h -3.889358 -3.889355 v -3.59016 -3.59017 h -3.590177 -3.590177 v 3.59017 3.59016 h -3.889355 -3.889355 v -3.59016 -3.59017 h -3.590182 -3.590177 v 3.59017 3.59016 H 58.778148 55.18797 v 3.52407 3.52405 l 7.117982,0.42768 7.117986,0.42768 0.427678,7.11798 0.427677,7.11798 h 55.581617 55.58162 z M 77.327394,182.17931 v -3.59018 h 3.590177 3.590177 v 3.59018 3.59017 h -3.590177 -3.590177 z m 14.959067,0 v -3.59018 h 3.59017 3.59018 v 3.59018 3.59017 h -3.59018 -3.59017 z m 14.959079,0 v -3.59018 h 3.59018 3.59018 v 3.59018 3.59017 h -3.59018 -3.59018 z m 14.95907,0 v -3.59018 h 3.59018 3.59017 v 3.59018 3.59017 h -3.59017 -3.59018 z m 14.95906,0 v -3.59018 h 3.59018 3.59018 v 3.59018 3.59017 h -3.59018 -3.59018 z m 14.95908,0 v -3.59018 h 3.59018 3.59018 v 3.59018 3.59017 h -3.59018 -3.59018 z M 54.589608,167.22024 v -3.59017 h -3.590177 -3.590177 v 3.59017 3.59016 h 3.590177 3.590177 z M 151.66509,118.45375 151.50655,81.055976 H 99.457921 47.409254 v 37.397664 37.39769 l 52.207157,9e-5 52.207159,1.2e-4 z m -97.075482,0.29909 V 88.834686 h 44.877203 44.877219 v 29.918154 29.91814 H 99.466811 54.589608 Z"
       id="path9885" />
    <path
       style="opacity:1;fill:#000000;fill-opacity:0;stroke-width:2.85714"
       d="M 208.57143,448.57143 V 337.14286 H 375.71429 542.85714 V 448.57143 560 H 375.71429 208.57143 Z"
       id="path9901"
       transform="scale(0.26458333)" />
    <path
       style="opacity:1;fill:#000000;fill-opacity:0;stroke-width:2.85714"
       d="M 208.57143,448.57143 V 337.14286 H 375.71429 542.85714 V 448.57143 560 H 375.71429 208.57143 Z"
       id="path9903"
       transform="scale(0.26458333)" />
    <path
       style="opacity:1;fill:#000000;fill-opacity:0;stroke-width:2.85714"
       d="M 208.57143,448.57143 V 337.14286 H 375.71429 542.85714 V 448.57143 560 H 375.71429 208.57143 Z"
       id="path9905"
       transform="scale(0.26458333)" />
    <rect
       style="opacity:1;fill:#000000;fill-opacity:0;stroke-width:0.264583"
       id="rect9907"
       width="97.016617"
       height="51.400524"
       x="55.106133"
       y="22.475096" />
    <rect
       style="opacity:1;fill:#000000;fill-opacity:1;stroke:none;stroke-width:0.269018"
       id="rect9925"
       width="107.94443"
       height="74.795547"
       x="45.46666"
       y="81.055977" />
    <rect
       style="opacity:1;fill:#808080;fill-opacity:1;stroke:none;stroke-width:0.269057"
       id="rect9957"
       width="107.66582"
       height="7.7787299"
       x="55.187969"
       y="170.81041" />
    <rect
       style="opacity:1;fill:#808080;fill-opacity:1;stroke:none;stroke-width:0.264583"
       id="rect9959"
       width="111.16324"
       height="7.1803598"
       x="70.279289"
       y="185.76947" />
    <rect
       style="opacity:1;fill:#808080;fill-opacity:1;stroke:none;stroke-width:0.306482"
       id="rect9961"
       width="7.8359494"
       height="20.072001"
       x="159.30312"
       y="170.81053" />
    <rect
       style="opacity:1;fill:#808080;fill-opacity:1;stroke:none;stroke-width:0.331978"
       id="rect9963"
       width="7.7787199"
       height="11.304221"
       x="144.34402"
       y="176.47249" />
    <rect
       style="opacity:1;fill:#808080;fill-opacity:1;stroke:none;stroke-width:0.381893"
       id="rect9965"
       width="7.7787099"
       height="14.959083"
       x="129.38495"
       y="173.98535" />
    <rect
       style="opacity:1;fill:#808080;fill-opacity:1;stroke:none;stroke-width:0.369908"
       id="rect9967"
       width="7.7787099"
       height="14.03486"
       x="114.4259"
       y="175.94333" />
    <rect
       style="opacity:1;fill:#808080;fill-opacity:1;stroke:none;stroke-width:0.381893"
       id="rect9969"
       width="7.778729"
       height="14.959083"
       x="99.466812"
       y="174.51451" />
    <rect
       style="opacity:1;fill:#808080;fill-opacity:1;stroke:none;stroke-width:0.445903"
       id="rect9971"
       width="7.7787127"
       height="20.394012"
       x="84.507744"
       y="170.81039" />
    <rect
       style="opacity:1;fill:#808080;fill-opacity:1;stroke:none;stroke-width:0.462021"
       id="rect9973"
       width="7.778708"
       height="21.859598"
       x="69.548683"
       y="170.81039" />
    <rect
       style="opacity:1;fill:#808080;fill-opacity:1;stroke:none;stroke-width:0.264583"
       id="rect9975"
       width="7.1803541"
       height="7.1803298"
       x="47.409256"
       y="163.63007" />
    <rect
       style="opacity:1;fill:#808080;fill-opacity:1;stroke:none;stroke-width:0.264583"
       id="rect9977"
       width="7.1803589"
       height="7.1803298"
       x="62.368324"
       y="163.63007" />
    <rect
       style="opacity:1;fill:#808080;fill-opacity:1;stroke:none;stroke-width:0.264583"
       id="rect9979"
       width="7.1803541"
       height="7.1803298"
       x="77.327393"
       y="163.63007" />
    <rect
       style="opacity:1;fill:#808080;fill-opacity:1;stroke:none;stroke-width:0.264583"
       id="rect9981"
       width="7.1803498"
       height="7.1803298"
       x="92.286461"
       y="163.63007" />
    <rect
       style="opacity:1;fill:#808080;fill-opacity:1;stroke:none;stroke-width:0.264583"
       id="rect9983"
       width="7.1803598"
       height="7.1803298"
       x="107.24554"
       y="163.63007" />
    <rect
       style="opacity:1;fill:#808080;fill-opacity:1;stroke:none;stroke-width:0.264583"
       id="rect9985"
       width="7.1803498"
       height="7.1803298"
       x="122.20461"
       y="163.63007" />
    <rect
       style="opacity:1;fill:#808080;fill-opacity:1;stroke:none;stroke-width:0.264583"
       id="rect9987"
       width="7.1803598"
       height="7.1803298"
       x="137.16367"
       y="163.63007" />
    <rect
       style="opacity:1;fill:#808080;fill-opacity:1;stroke:none;stroke-width:0.264583"
       id="rect9989"
       width="7.1803598"
       height="7.1803298"
       x="152.12276"
       y="163.63007" />
    <rect
       style="opacity:1;fill:#000000;fill-opacity:1;stroke:none;stroke-width:0.287785"
       id="rect9925-3"
       width="111.719"
       height="82.703377"
       x="43.879158"
       y="81.055977" />
    <rect
       style="opacity:1;fill:#1a1a1a;fill-opacity:1;stroke:none;stroke-width:0.264583"
       id="rect9923"
       width="88.446426"
       height="58.964283"
       x="55.184525"
       y="89.202377" />
  </g>
</svg>
